<svg width="859" height="1141" viewBox="0 0 859 1141" fill="none" xmlns="http://www.w3.org/2000/svg">
<mask id="mask0_782_1183" style="mask-type:alpha" maskUnits="userSpaceOnUse" x="-626" y="-343" width="1485" height="1484">
<circle cx="116.938" cy="399" r="742" fill="#333331"/>
</mask>
<g mask="url(#mask0_782_1183)">
<g opacity="0.15">
<path d="M692.21 398.941L750.244 398.941L750.244 341.074L692.21 341.074L692.21 398.941Z" fill="#FDB106"/>
<path d="M634.175 456.808L692.209 456.808L692.209 398.941L634.175 398.941L634.175 456.808Z" fill="#FDB106"/>
<path d="M576.144 398.941L634.178 398.941L634.178 341.074L576.144 341.074L576.144 398.941Z" fill="#FDB106"/>
<path d="M518.109 456.808L576.143 456.808L576.143 398.941L518.109 398.941L518.109 456.808Z" fill="#FDB106"/>
<path d="M460.002 398.941L518.109 398.941L518.109 341.074L460.002 341.074L460.002 398.941Z" fill="#FDB106"/>
<path d="M750.246 456.808L808.206 456.808L808.206 398.867L750.246 398.867L750.246 456.808Z" fill="#FDB106"/>
<path d="M808.206 398.867L866.313 398.867L866.313 341L808.206 341L808.206 398.867Z" fill="#FDB106"/>
</g>
<g opacity="0.15">
<path d="M692.21 215.941L750.244 215.941L750.244 158.074L692.21 158.074L692.21 215.941Z" fill="#FDB106"/>
<path d="M634.175 273.808L692.209 273.808L692.209 215.941L634.175 215.941L634.175 273.808Z" fill="#FDB106"/>
<path d="M576.144 215.941L634.178 215.941L634.178 158.074L576.144 158.074L576.144 215.941Z" fill="#FDB106"/>
<path d="M518.109 273.808L576.143 273.808L576.143 215.941L518.109 215.941L518.109 273.808Z" fill="#FDB106"/>
<path d="M460.002 215.941L518.109 215.941L518.109 158.074L460.002 158.074L460.002 215.941Z" fill="#FDB106"/>
<path d="M750.246 273.808L808.206 273.808L808.206 215.867L750.246 215.867L750.246 273.808Z" fill="#FDB106"/>
<path d="M808.206 215.867L866.313 215.867L866.313 158L808.206 158L808.206 215.867Z" fill="#FDB106"/>
</g>
<g opacity="0.15">
<path d="M750.626 581.365L808.66 581.365L808.66 523.498L750.626 523.498L750.626 581.365Z" fill="#FDB106"/>
<path d="M692.591 639.232L750.625 639.232L750.625 581.365L692.591 581.365L692.591 639.232Z" fill="#FDB106"/>
<path d="M634.56 581.365L692.594 581.365L692.594 523.498L634.56 523.498L634.56 581.365Z" fill="#FDB106"/>
<path d="M576.525 639.232L634.559 639.232L634.559 581.365L576.525 581.365L576.525 639.232Z" fill="#FDB106"/>
<path d="M518.418 581.365L576.525 581.365L576.525 523.498L518.418 523.498L518.418 581.365Z" fill="#FDB106"/>
<path d="M808.662 639.232L866.622 639.232L866.622 581.291L808.662 581.291L808.662 639.232Z" fill="#FDB106"/>
</g>
</g>
</svg>
