<svg width="33" height="30" viewBox="0 0 33 30" fill="none" xmlns="http://www.w3.org/2000/svg">
<path d="M32.3897 12.6699C32.333 12.5528 32.2451 12.4536 32.1358 12.383C32.0264 12.3125 31.8998 12.2734 31.7697 12.2699H29.7697C29.1323 8.80709 27.297 5.6789 24.5852 3.43307C21.8735 1.18724 18.4581 -0.0330722 14.9372 -0.0141884C11.4162 0.00469548 8.01414 1.26157 5.32663 3.53636C2.63913 5.81114 0.837494 8.95885 0.23721 12.4283C-0.363074 15.8977 0.276253 19.4678 2.04324 22.5133C3.81023 25.5588 6.59225 27.8856 9.90216 29.0864C13.2121 30.2871 16.8389 30.2853 20.1476 29.0811C23.4563 27.8769 26.2359 25.5472 27.9997 22.4999C28.089 22.3449 28.1469 22.1739 28.1701 21.9966C28.1933 21.8192 28.1814 21.6391 28.1349 21.4663C28.0885 21.2936 28.0085 21.1317 27.8995 20.9899C27.7905 20.8481 27.6547 20.7292 27.4997 20.6399C27.3448 20.5506 27.1737 20.4927 26.9964 20.4695C26.8191 20.4463 26.6389 20.4582 26.4662 20.5047C26.2935 20.5511 26.1316 20.6311 25.9898 20.7401C25.848 20.8491 25.729 20.9849 25.6397 21.1399C24.203 23.6136 21.9477 25.5082 19.2631 26.4964C16.5785 27.4847 13.6331 27.5047 10.9353 26.5529C8.23756 25.6012 5.95673 23.7374 4.48655 21.2834C3.01637 18.8294 2.4491 15.9391 2.88266 13.1114C3.31621 10.2837 4.72339 7.69613 6.86128 5.7953C8.99917 3.89448 11.7336 2.7997 14.5926 2.69994C17.4516 2.60019 20.2557 3.50172 22.5209 5.24891C24.786 6.9961 26.3701 9.47931 26.9997 12.2699H24.9997C24.8696 12.2734 24.743 12.3125 24.6337 12.383C24.5243 12.4536 24.4365 12.5528 24.3797 12.6699C24.3266 12.7871 24.3077 12.9169 24.3254 13.0444C24.3431 13.1718 24.3966 13.2916 24.4797 13.3899L27.8897 17.4799C27.9526 17.5504 28.0296 17.6067 28.1158 17.6453C28.2019 17.684 28.2953 17.7039 28.3897 17.7039C28.4841 17.7039 28.5775 17.684 28.6637 17.6453C28.7498 17.6067 28.8269 17.5504 28.8897 17.4799L32.2997 13.3899C32.3812 13.2906 32.4329 13.1703 32.4488 13.0429C32.4647 12.9155 32.4442 12.7862 32.3897 12.6699Z" fill="#333331"/>
<path d="M14.9997 3.40991C14.639 3.40991 14.2931 3.5532 14.038 3.80825C13.783 4.0633 13.6397 4.40922 13.6397 4.76991V13.0499C13.3284 13.2705 13.0749 13.5629 12.9008 13.9024C12.7267 14.2419 12.6371 14.6184 12.6397 14.9999C12.6422 15.6278 12.8907 16.2297 13.3319 16.6765C13.7731 17.1234 14.3719 17.3795 14.9997 17.3899C15.3455 17.3847 15.6863 17.3063 15.9997 17.1599L20.7397 19.8899C20.9449 20.0138 21.18 20.0795 21.4197 20.0799C21.7188 20.0764 22.0086 19.9752 22.2447 19.7915C22.4809 19.6079 22.6505 19.352 22.7275 19.063C22.8046 18.774 22.785 18.4676 22.6716 18.1908C22.5582 17.914 22.3574 17.6819 22.0997 17.5299L17.3597 14.7899C17.3291 14.4447 17.2239 14.1103 17.0512 13.8099C16.8785 13.5094 16.6426 13.2501 16.3597 13.0499V4.76991C16.3545 4.41083 16.2096 4.0679 15.9557 3.81396C15.7017 3.56002 15.3588 3.41508 14.9997 3.40991ZM14.9997 15.9999C14.8019 15.9999 14.6086 15.9413 14.4441 15.8314C14.2797 15.7215 14.1515 15.5653 14.0758 15.3826C14.0001 15.1999 13.9803 14.9988 14.0189 14.8048C14.0575 14.6108 14.1527 14.4327 14.2926 14.2928C14.4324 14.153 14.6106 14.0577 14.8046 14.0191C14.9986 13.9805 15.1997 14.0003 15.3824 14.076C15.5651 14.1517 15.7213 14.2799 15.8312 14.4443C15.9411 14.6088 15.9997 14.8021 15.9997 14.9999C15.9997 15.2651 15.8943 15.5195 15.7068 15.707C15.5193 15.8946 15.2649 15.9999 14.9997 15.9999Z" fill="#333331"/>
</svg>
